<svg width="71" height="61" viewBox="0 0 71 61" fill="none" xmlns="http://www.w3.org/2000/svg">
<path d="M66.2082 11.4095L66.0974 12.1582L63.9281 26.8108C63.9279 26.8129 63.9276 26.8149 63.9273 26.817C63.7925 27.8521 63.4402 28.7637 62.8052 29.4227C62.1562 30.0964 61.2733 30.4417 60.2193 30.4418L66.2082 11.4095ZM66.2082 11.4095H65.4513H18.553H17.7971L17.9068 12.1573L20.51 29.9135L20.5919 30.4723L21.1567 30.4718L60.2188 30.4418L66.2082 11.4095ZM21.8276 33.7582H21.0674L21.1819 34.5097L21.6713 37.7212C21.6714 37.7218 21.6715 37.7224 21.6715 37.723C21.8235 38.7503 22.2029 39.6621 22.8421 40.3249C23.493 40.9999 24.3703 41.3706 25.4091 41.3706H60.6158C61.4474 41.3706 62.1963 42.0576 62.1963 43.0138C62.1963 43.9699 61.4474 44.6569 60.6158 44.6569H24.8892C22.8125 44.6569 21.3072 44.0249 20.2412 42.9454C19.1618 41.8522 18.4663 40.2326 18.1567 38.1427L13.2587 4.531L13.1773 3.97209H12.6125H2.26622C1.41839 3.97209 0.653089 3.20902 0.653089 2.29887C0.653089 1.42203 1.41394 0.653089 2.26491 0.653089H13.0122C14.5095 0.653089 15.303 0.943361 15.7672 1.37207C16.2355 1.80449 16.501 2.49725 16.6487 3.63677L16.6486 3.63679L16.6505 3.6496L17.2331 7.53679L17.3165 8.09308H17.879H67.8703C68.5827 8.09308 69.1139 8.30572 69.4584 8.61511C69.7946 8.91697 70.0002 9.35152 70.0033 9.90757C69.988 10.2647 69.9501 10.6206 69.8899 10.9729L69.8898 10.9729L69.8879 10.9853L67.4388 27.1806L67.4384 27.1834C67.1292 29.2891 66.4332 30.9242 65.3493 32.0287C64.2793 33.119 62.7667 33.7582 60.6759 33.7582H21.8276ZM27.3137 59.5356H27.3083C24.8789 59.5356 22.9718 57.6493 22.9718 55.2291C22.9718 52.8377 24.8816 50.9227 27.3083 50.9227L27.3112 50.9227C27.8771 50.9201 28.4378 51.0297 28.9611 51.2451C29.4844 51.4604 29.9598 51.7773 30.36 52.1775C30.7601 52.5776 31.077 53.053 31.2924 53.5763C31.5077 54.0996 31.6173 54.6603 31.6147 55.2262L31.6148 55.2345C31.6194 55.8007 31.5114 56.3621 31.2969 56.886C31.0824 57.41 30.7658 57.886 30.3654 58.2863C29.9651 58.6866 29.4891 59.0033 28.9652 59.2178C28.4412 59.4323 27.8798 59.5403 27.3137 59.5356ZM60.2684 55.2291C60.2684 57.6494 58.3624 59.5356 55.9319 59.5356C53.53 59.5356 51.5954 57.6467 51.5954 55.2291C51.5954 52.8402 53.5327 50.9227 55.9319 50.9227C58.3598 50.9227 60.2684 52.8364 60.2684 55.2291Z" fill="white" stroke="white" stroke-width="1.30618"/>
</svg>
